<?xml version="1.0" encoding="UTF-8"?>
<svg width="714px" height="108px" viewBox="0 0 714 108" version="1.1" xmlns="http://www.w3.org/2000/svg" xmlns:xlink="http://www.w3.org/1999/xlink">
    <!-- Generator: Sketch 51 (57462) - http://www.bohemiancoding.com/sketch -->
    <title>Logo</title>
    <desc>Created with Sketch.</desc>
    <defs>
        <circle id="path-1" cx="205.5" cy="42.5" r="21.5"></circle>
    </defs>
    <g id="Page-1" stroke="none" stroke-width="1" fill="none" fill-rule="evenodd">
        <g id="Desktop" transform="translate(-244.000000, -129.000000)">
            <g id="Logo" transform="translate(241.000000, 108.000000)">
                <path d="M3,43 L39.6,43 L39.6,45.28 L33,45.28 L33,124.72 L39.6,124.72 L39.6,127 L3,127 L3,124.72 L9.6,124.72 L9.6,45.28 L3,45.28 L3,43 Z M44.04,69.88 L72.96,69.88 L72.96,80.92 C74.2400064,77.2399816 76.1999868,74.2800112 78.84,72.04 C81.4800132,69.7999888 85.4799732,68.68 90.84,68.68 C103.240062,68.68 109.44,75.3599332 109.44,88.72 L109.44,124.84 L116.16,124.84 L116.16,127 L82.2,127 L82.2,124.84 L87.12,124.84 L87.12,85.84 C87.12,81.039976 86.8000032,77.940007 86.16,76.54 C85.5199968,75.139993 84.3600084,74.44 82.68,74.44 C80.1199872,74.44 77.8600098,76.1199832 75.9,79.48 C73.9399902,82.8400168 72.96,86.919976 72.96,91.72 L72.96,124.84 L78.12,124.84 L78.12,127 L44.04,127 L44.04,124.84 L50.64,124.84 L50.64,72.04 L44.04,72.04 L44.04,69.88 Z M142.08,102.16 C142.08,110.560042 142.519996,116.139986 143.4,118.9 C144.280004,121.660014 145.899988,123.04 148.26,123.04 C150.620012,123.04 152.659991,122.00001 154.38,119.92 C156.100009,117.83999 156.96,114.76002 156.96,110.68 L156.96,84.52 C156.96,81.0799828 156.280007,78.160012 154.92,75.76 C153.559993,73.359988 151.560013,72.16 148.92,72.16 C146.279987,72.16 144.480005,73.9199824 143.52,77.44 C142.559995,80.9600176 142.08,87.119956 142.08,95.92 L142.08,102.16 Z M158.52,127 L157.2,118.6 C154.479986,125.000032 148.960042,128.2 140.64,128.2 C133.759966,128.2 128.420019,125.720025 124.62,120.76 C120.819981,115.799975 118.92,108.400049 118.92,98.56 C118.92,78.6399004 126.839921,68.68 142.68,68.68 C149.720035,68.68 154.359989,70.6399804 156.6,74.56 L156.6,39.16 L149.28,39.16 L149.28,37 L179.28,37 L179.28,124.84 L185.16,124.84 L185.16,127 L158.52,127 Z M205.92,61.6 C201.679979,61.6 198.660009,60.5200108 196.86,58.36 C195.059991,56.1999892 194.16,53.520016 194.16,50.32 C194.16,47.119984 195.13999,44.4800104 197.1,42.4 C199.06001,40.3199896 202.03998,39.28 206.04,39.28 C210.04002,39.28 213.07999,40.2199906 215.16,42.1 C217.24001,43.9800094 218.28,46.6599826 218.28,50.14 C218.28,53.6200174 217.28001,56.3999896 215.28,58.48 C213.27999,60.5600104 210.160021,61.6 205.92,61.6 Z M187.8,69.88 L217.2,69.88 L217.2,124.84 L223.92,124.84 L223.92,127 L188.28,127 L188.28,124.84 L194.88,124.84 L194.88,72.04 L187.8,72.04 L187.8,69.88 Z M257.88,128.2 C247.559948,128.2 239.820026,125.540027 234.66,120.22 C229.499974,114.899973 226.92,107.500047 226.92,98.02 C226.92,88.5399526 229.819971,81.2800252 235.62,76.24 C241.420029,71.1999748 248.799955,68.68 257.76,68.68 C275.920091,68.68 284.640004,77.7999088 283.92,96.04 L250.08,96.04 L250.08,100.72 C250.08,108.560039 251.07999,114.47998 253.08,118.48 C255.08001,122.48002 258.559975,124.48 263.52,124.48 C272.800046,124.48 278.879986,119.52005 281.76,109.6 L283.92,109.96 C282.399992,115.720029 279.66002,120.199984 275.7,123.4 C271.73998,126.600016 265.80004,128.2 257.88,128.2 Z M250.2,93.64 L262.56,93.64 L262.56,87.76 C262.56,81.2799676 262.180004,76.8600118 261.42,74.5 C260.659996,72.1399882 259.140011,70.96 256.86,70.96 C254.579989,70.96 252.900005,72.2199874 251.82,74.74 C250.739995,77.2600126 250.2,81.5999692 250.2,87.76 L250.2,93.64 Z M374.4,43 L406.44,43 L406.44,45.28 L399.84,45.28 L399.84,124.72 L406.44,124.72 L406.44,127 L369.84,127 L369.84,124.72 L376.44,124.72 L376.44,49.72 L375.96,49.72 L357.96,127 L342.96,127 L321.84,49.36 L321.36,49.36 L321.36,124.72 L327.96,124.72 L327.96,127 L311.64,127 L311.64,124.72 L318.24,124.72 L318.24,45.28 L311.64,45.28 L311.64,43 L344.04,43 L360,104.8 L374.4,43 Z M439.44,98.8 L442.92,98.8 L442.92,89.56 C442.92,81.959962 442.500004,76.860013 441.66,74.26 C440.819996,71.659987 439.200012,70.36 436.8,70.36 C435.359993,70.36 434.060006,70.7399962 432.9,71.5 C431.739994,72.2600038 431.16,73.2999934 431.16,74.62 C431.16,75.9400066 431.399998,77.2799932 431.88,78.64 L434.88,78.64 C435.520003,80.3200084 435.84,82.3399882 435.84,84.7 C435.84,87.0600118 434.84001,89.0999914 432.84,90.82 C430.83999,92.5400086 428.320015,93.4 425.28,93.4 C418.399966,93.4 414.96,90.0800332 414.96,83.44 C414.96,73.5999508 423.319916,68.68 440.04,68.68 C449.560048,68.68 456.139982,70.2999838 459.78,73.54 C463.420018,76.7800162 465.24,82.7199568 465.24,91.36 L465.24,115.72 C465.24,119.880021 466.399988,121.96 468.72,121.96 C471.440014,121.96 473.039998,117.840041 473.52,109.6 L475.32,109.72 C474.999998,116.760035 473.680012,121.599987 471.36,124.24 C469.039988,126.880013 465.240026,128.2 459.96,128.2 C450.359952,128.2 444.840007,125.24003 443.4,119.32 C442.359995,122.360015 440.80001,124.599993 438.72,126.04 C436.63999,127.480007 433.60002,128.2 429.6,128.2 C417.759941,128.2 411.84,123.360048 411.84,113.68 C411.84,107.999972 414.099977,104.100011 418.62,101.98 C423.140023,99.8599894 430.079953,98.8 439.44,98.8 Z M434.64,113.56 C434.64,117.720021 434.859998,120.399994 435.3,121.6 C435.740002,122.800006 436.579994,123.4 437.82,123.4 C439.060006,123.4 440.219995,122.38001 441.3,120.34 C442.380005,118.29999 442.92,115.480018 442.92,111.88 L442.92,100.72 L442.08,100.72 C437.119975,100.72 434.64,104.359964 434.64,111.64 L434.64,113.56 Z M515.76,127 L515.76,124.84 L521.28,124.84 L507.72,97 L505.44,97.6 L505.44,124.84 L510.96,124.84 L510.96,127 L476.52,127 L476.52,124.84 L483.12,124.84 L483.12,39.16 L476.04,39.16 L476.04,37 L505.44,37 L505.44,95.2 L507.36,94.48 L534.36,72.04 L523.08,72.04 L523.08,69.88 L546.72,69.88 L546.72,72.04 L538.32,72.04 L524.04,84.16 L544.8,124.84 L549.12,124.84 L549.12,127 L515.76,127 Z M579.48,128.2 C569.159948,128.2 561.420026,125.540027 556.26,120.22 C551.099974,114.899973 548.52,107.500047 548.52,98.02 C548.52,88.5399526 551.419971,81.2800252 557.22,76.24 C563.020029,71.1999748 570.399955,68.68 579.36,68.68 C597.520091,68.68 606.240004,77.7999088 605.52,96.04 L571.68,96.04 L571.68,100.72 C571.68,108.560039 572.67999,114.47998 574.68,118.48 C576.68001,122.48002 580.159975,124.48 585.12,124.48 C594.400046,124.48 600.479986,119.52005 603.36,109.6 L605.52,109.96 C603.999992,115.720029 601.26002,120.199984 597.3,123.4 C593.33998,126.600016 587.40004,128.2 579.48,128.2 Z M571.8,93.64 L584.16,93.64 L584.16,87.76 C584.16,81.2799676 583.780004,76.8600118 583.02,74.5 C582.259996,72.1399882 580.740011,70.96 578.46,70.96 C576.179989,70.96 574.500005,72.2199874 573.42,74.74 C572.339995,77.2600126 571.8,81.5999692 571.8,87.76 L571.8,93.64 Z M649.92,73.24 C646.959985,73.24 644.360011,75.1599808 642.12,79 C639.879989,82.8400192 638.76,87.3999736 638.76,92.68 L638.76,124.84 L647.28,124.84 L647.28,127 L609.84,127 L609.84,124.84 L616.44,124.84 L616.44,72.04 L609.84,72.04 L609.84,69.88 L638.76,69.88 L638.76,81.4 C639.800005,77.3199796 641.799985,74.180011 644.76,71.98 C647.720015,69.779989 651.079981,68.68 654.84,68.68 C658.600019,68.68 661.659988,69.7399894 664.02,71.86 C666.380012,73.9800106 667.56,76.9799806 667.56,80.86 C667.56,84.7400194 666.680009,87.7199896 664.92,89.8 C663.159991,91.8800104 660.460018,92.92 656.82,92.92 C653.179982,92.92 650.500009,91.720012 648.78,89.32 C647.059991,86.919988 646.839994,83.6000212 648.12,79.36 L652.44,79.36 C654.44001,75.2799796 653.600018,73.24 649.92,73.24 Z M670.56,128.2 L670.56,106.72 L672,106.72 C674.08001,113.680035 676.879982,118.559986 680.4,121.36 C683.920018,124.160014 688.319974,125.56 693.6,125.56 C701.760041,125.56 705.84,122.960026 705.84,117.76 C705.84,115.519989 704.84001,113.840006 702.84,112.72 C699.719984,110.959991 695.720024,109.600005 690.84,108.64 C685.399973,107.199993 680.840018,105.280012 677.16,102.88 C672.759978,99.9999856 670.56,95.4400312 670.56,89.2 C670.56,82.9599688 672.479981,77.9800186 676.32,74.26 C680.160019,70.5399814 685.279968,68.68 691.68,68.68 C695.60002,68.68 699.639979,69.5999908 703.8,71.44 C705.320008,72.0800032 706.479996,72.4 707.28,72.4 C708.080004,72.4 708.759997,72.1200028 709.32,71.56 C709.880003,70.9999972 710.559996,69.9600076 711.36,68.44 L712.68,68.44 L712.68,86.8 L711.24,86.8 C707.15998,76.399948 700.840043,71.2 692.28,71.2 C688.519981,71.2 685.720009,71.8599934 683.88,73.18 C682.039991,74.5000066 681.12,76.15999 681.12,78.16 C681.12,79.360006 681.399997,80.2999966 681.96,80.98 C682.520003,81.6600034 682.959998,82.1599984 683.28,82.48 C683.600002,82.8000016 684.119996,83.1399982 684.84,83.5 C685.560004,83.8600018 686.159998,84.139999 686.64,84.34 C687.120002,84.540001 687.859995,84.7999984 688.86,85.12 C689.860005,85.4400016 690.599998,85.6399996 691.08,85.72 C696.520027,87.0800068 700.439988,88.259995 702.84,89.26 C705.240012,90.260005 707.519989,91.4799928 709.68,92.92 C714.080022,95.9600152 716.28,100.859966 716.28,107.62 C716.28,114.380034 714.28002,119.499983 710.28,122.98 C706.27998,126.460017 700.800035,128.2 693.84,128.2 C688.879975,128.2 684.080023,127.040012 679.44,124.72 C678.479995,124.079997 677.720003,123.76 677.16,123.76 C675.399991,123.76 673.680008,125.239985 672,128.2 L670.56,128.2 Z" id="Indie-Makers" fill="#FFFFFF"></path>
                <mask id="mask-2" fill="white">
                    <use xlink:href="#path-1"></use>
                </mask>
                <use id="Oval" fill="#FFFFFF" xlink:href="#path-1"></use>
                <g id="noun_spanner_2269718" mask="url(#mask-2)" fill="#000000" fill-rule="nonzero">
                    <g transform="translate(223.000000, 25.000000) rotate(-180.000000) translate(-223.000000, -25.000000) translate(191.000000, -7.000000)" id="Shape">
                        <path d="M61.5302169,10.3772314 L53.3922352,18.5152132 C52.8698032,18.983971 52.1551375,19.1754705 51.4683172,19.0307398 L46.6674741,17.7443204 C46.0003014,17.5262796 45.477118,17.0031248 45.2590408,16.335964 L43.9726213,11.5350719 C43.8278906,10.8482516 44.0193901,10.1335859 44.488148,9.61115395 L52.6261647,1.47317221 C53.0752217,1.02407324 52.9498833,0.498083073 52.3310161,0.355527083 C47.3544427,-0.797094393 42.1487333,0.899868644 38.8075058,4.76393622 C35.4662784,8.6280038 34.5386222,14.0241643 36.3976196,18.7822047 L17.0350193,38.1447559 C11.4016286,36.1637535 5.14711378,38.3441514 1.96613696,43.3979468 C-1.21483987,48.4517423 -0.475781802,55.0340583 3.74673535,59.2565943 C7.9692525,63.4791304 14.5515652,64.2182179 19.6053749,61.0372637 C24.6591845,57.8563094 26.8396105,51.6018044 24.8586332,45.9684048 L44.2211914,26.6057766 C48.9792351,28.4647742 54.3753991,27.5371146 58.2394663,24.1958818 C62.1035335,20.854649 63.8004917,15.6489338 62.647862,10.672359 C62.505313,10.0535059 61.9793159,9.92816745 61.5302169,10.3772314 Z M19.8959308,49.0714052 L18.3800625,54.7288442 C18.2423967,55.2423102 17.841327,55.6433718 17.3278582,55.7810275 L11.6704193,57.2968957 C11.1569134,57.4345082 10.6089999,57.2876866 10.2331081,56.9117468 L6.09157937,52.7702181 C5.71565556,52.3943169 5.56882247,51.8464202 5.70638843,51.3329068 L7.22237565,45.6755099 C7.35989998,45.1619592 7.76102838,44.7608335 8.27457996,44.6233126 L13.9319769,43.1073254 C14.445497,42.9697568 14.9934019,43.1165744 15.3693301,43.4924813 L19.5108588,47.634003 C19.8867856,48.00994 20.0335769,48.557885 19.8959308,49.0714052 Z"></path>
                    </g>
                </g>
            </g>
        </g>
    </g>
</svg>